HIERARCHY
ROOT Hips
{
	OFFSET -9.456058 105.799324 -2.416385
	CHANNELS 6 Xposition Yposition Zposition Xrotation Yrotation Zrotation
	JOINT Chest
	{
		OFFSET 2.360795 13.403282 0.965826
		CHANNELS 3 Xrotation Yrotation Zrotation
		JOINT Chest2
		{
			OFFSET 2.494763 21.059021 3.059500
			CHANNELS 3 Xrotation Yrotation Zrotation
			JOINT Chest3
			{
				OFFSET 0.798740 14.895294 -0.558699
				CHANNELS 3 Xrotation Yrotation Zrotation
				JOINT Neck
				{
					OFFSET 1.026565 17.232559 0.775391
					CHANNELS 3 Xrotation Yrotation Zrotation
					JOINT Head
					{
						OFFSET -0.943204 10.263916 1.894782
						CHANNELS 3 Xrotation Yrotation Zrotation
						End Site
						{
							OFFSET -0.932664 10.277725 1.823789
						}
					}
				}
				JOINT LeftCollar
				{
					OFFSET 5.174080 12.844101 3.172128
					CHANNELS 3 Xrotation Yrotation Zrotation
					JOINT LeftUpArm
					{
						OFFSET 15.583922 3.613190 -7.251599
						CHANNELS 3 Xrotation Yrotation Zrotation
						JOINT LeftLowArm
						{
							OFFSET 27.576170 14.065994 13.469599
							CHANNELS 3 Xrotation Yrotation Zrotation
							JOINT LeftHand
							{
								OFFSET -20.801857 20.669708 6.402614
								CHANNELS 3 Xrotation Yrotation Zrotation
								End Site
								{
									OFFSET -4.546366 4.517487 1.399328
								}
							}
						}
					}
				}
				JOINT RightCollar
				{
					OFFSET -3.208285 13.316925 3.764995
					CHANNELS 3 Xrotation Yrotation Zrotation
					JOINT RightUpArm
					{
						OFFSET -16.611965 1.653809 -5.459293
						CHANNELS 3 Xrotation Yrotation Zrotation
						JOINT RightLowArm
						{
							OFFSET -29.014107 10.710312 13.535316
							CHANNELS 3 Xrotation Yrotation Zrotation
							JOINT RightHand
							{
								OFFSET 14.737682 23.252747 11.961006
								CHANNELS 3 Xrotation Yrotation Zrotation
								End Site
								{
									OFFSET 3.221092 5.082092 2.614210
								}
							}
						}
					}
				}
			}
		}
	}
	JOINT LeftUpLeg
	{
		OFFSET 9.867457 -1.713722 -0.339984
		CHANNELS 3 Xrotation Yrotation Zrotation
		JOINT LeftLowLeg
		{
			OFFSET 4.339057 -43.257298 18.814014
			CHANNELS 3 Xrotation Yrotation Zrotation
			JOINT LeftFoot
			{
				OFFSET -19.663980 -35.411423 -18.971725
				CHANNELS 3 Xrotation Yrotation Zrotation
				JOINT LeftToe
				{
					OFFSET -18.007153 -13.473691 7.332203
					CHANNELS 3 Xrotation Yrotation Zrotation
					End Site
					{
						OFFSET -11.958527 -5.401974 19.681749
					}
				}
			}
		}
	}
	JOINT RightUpLeg
	{
		OFFSET -9.867496 1.713531 0.339970
		CHANNELS 3 Xrotation Yrotation Zrotation
		JOINT RightLowLeg
		{
			OFFSET -0.613272 -47.271450 3.007859
			CHANNELS 3 Xrotation Yrotation Zrotation
			JOINT RightFoot
			{
				OFFSET 5.702040 -39.333496 -20.516911
				CHANNELS 3 Xrotation Yrotation Zrotation
				JOINT RightToe
				{
					OFFSET -1.184283 -19.997049 12.580645
					CHANNELS 3 Xrotation Yrotation Zrotation
					End Site
					{
						OFFSET -5.820403 -7.691620 21.599030
					}
				}
			}
		}
	}
}
MOTION
Frames: 11
Frame Time: 0.033333
-11.580771 101.201874 -4.106447 0.501380 9.515300 -6.854899 9.093826 -1.589558 -0.016259 -1.137898 -2.854136 4.848502 -2.755464 -1.436998 1.497137 1.265336 -5.774054 4.042300 -0.000000 0.000001 0.000000 -0.815047 -1.359837 -2.958747 3.039976 -2.874634 -17.519054 81.029191 -2.808156 13.668960 0.000002 -0.000001 0.000001 -0.534950 -0.659065 9.078930 2.734297 -3.305812 14.642107 58.351419 16.910896 -23.438537 -0.000002 -0.000003 0.000000 -20.284859 -0.558724 8.868891 20.362624 -20.694920 -57.542780 11.210588 -20.925301 -18.073336 0.000000 -0.000006 0.000002 -5.890797 0.909019 7.648295 2.635461 -1.372957 5.988134 -15.557101 -14.880124 -4.864018 -0.000001 0.000002 -0.000000 
-11.648803 101.037918 -4.179782 0.484922 9.576689 -7.027848 9.584648 -1.690805 -0.261724 -1.380130 -2.839909 4.910480 -2.851902 -1.418875 1.753950 1.614996 -5.929228 4.390293 -0.000000 -0.000000 0.000000 -0.321561 -1.797503 -2.676650 3.314254 -3.046600 -17.848664 81.194816 -2.776462 13.050246 0.000003 -0.000001 0.000002 -0.286017 -0.664520 9.256775 3.103261 -2.520866 14.794842 59.038639 16.741671 -21.963699 -0.000006 0.000001 0.000004 -20.342952 -0.508875 9.157630 20.293129 -20.737969 -57.634188 12.897551 -19.451131 -21.092024 -0.000003 0.000003 -0.000002 -5.744219 0.898373 7.811078 2.505643 -1.403520 6.148844 -15.585957 -14.697940 -4.814961 0.000001 -0.000001 0.000002 
-11.710135 100.882446 -4.250027 0.191447 9.405015 -7.202745 9.765572 -1.736610 -0.337875 -0.607450 -2.954946 5.016117 -3.528522 -1.390195 1.861118 1.828063 -5.713988 4.375894 -0.000000 0.000001 0.000000 -0.129766 -1.815658 -2.583347 3.384238 -2.844416 -18.111227 81.599143 -2.772426 12.661980 0.000001 0.000000 0.000004 -0.070332 -0.470361 9.482789 3.267171 -2.332461 14.933700 59.601365 16.694024 -21.770234 -0.000004 0.000003 0.000002 -19.769492 -0.425805 9.779457 20.150252 -20.699773 -57.827394 14.206932 -18.003709 -22.985473 -0.000004 -0.000000 0.000001 -5.398803 0.854176 7.984855 2.377359 -1.432334 6.207353 -15.489998 -14.384298 -4.625142 -0.000002 0.000003 -0.000000 
-11.769369 100.725739 -4.315387 0.868383 9.628743 -7.563370 9.130735 -1.609091 -0.304898 -1.082843 -3.155150 5.336251 -2.920665 -2.122174 1.547666 2.078805 -5.772791 4.385163 -0.000001 -0.000000 -0.000000 -0.221957 -1.881789 -2.476488 3.185595 -2.824563 -18.349703 83.217891 -3.028301 11.613980 0.000003 -0.000001 0.000004 -0.245503 -0.613775 9.700591 3.114497 -1.979439 15.441775 61.168763 16.819645 -21.553145 -0.000001 0.000000 0.000004 -20.218863 -0.418670 10.133941 20.963719 -21.379546 -57.201386 14.953270 -16.638030 -24.300761 -0.000001 -0.000000 0.000001 -6.005286 0.839302 8.241479 2.179888 -1.556138 6.361035 -15.638188 -14.642466 -4.803159 -0.000002 0.000003 -0.000000 
-11.829678 100.572937 -4.378593 0.742087 9.733715 -7.888470 9.477440 -1.680293 -0.338656 -1.259670 -3.275482 5.552354 -2.840769 -2.320453 1.504941 2.641423 -5.878856 4.516459 0.000001 0.000000 0.000001 0.387073 -2.927422 -2.217167 3.311536 -2.195617 -18.702520 83.219455 -3.069171 10.846738 0.000001 -0.000001 0.000002 -0.200808 -0.902340 9.927810 3.425855 -1.909275 15.840341 61.688739 16.717636 -21.820112 -0.000001 0.000001 0.000000 -19.964675 -0.378533 10.675843 20.184242 -20.939442 -58.262538 15.986635 -15.957456 -26.055939 -0.000001 0.000001 -0.000000 -6.054295 0.819318 8.651413 2.409155 -1.498906 6.406621 -15.570473 -14.268064 -4.455223 0.000001 0.000001 0.000003 
-11.884542 100.426109 -4.445517 1.175770 9.868380 -8.213682 9.331539 -1.649728 -0.219542 -1.026608 -3.439409 5.793183 -2.985771 -2.374522 1.388719 2.227897 -6.050893 4.692318 -0.000000 0.000000 0.000001 0.313035 -2.718391 -2.088096 3.507277 -2.607047 -19.065184 83.589009 -3.166062 10.038810 -0.000001 -0.000003 0.000005 -0.235472 -1.139163 9.964979 3.602836 -1.791636 16.161848 61.732657 16.557907 -21.917650 -0.000000 -0.000003 0.000004 -20.343817 -0.370315 10.933440 20.172950 -21.004816 -58.505044 16.490085 -15.875865 -26.971083 -0.000002 -0.000003 -0.000003 -6.443607 0.790430 8.942204 2.297993 -1.563882 6.510550 -15.256723 -14.449795 -4.655098 0.000001 0.000002 0.000001 
-11.935702 100.285652 -4.507163 1.478125 9.852995 -8.446402 9.938601 -1.781368 -0.287319 -1.438571 -3.379890 5.855428 -2.620775 -2.257663 1.505658 1.604442 -6.238036 5.038817 -0.000000 -0.000000 0.000000 0.613835 -2.920899 -1.754250 4.008085 -3.210364 -19.050513 81.571706 -2.981680 10.210060 -0.000002 -0.000003 0.000007 -0.036434 -1.219408 9.964593 4.111181 -1.699823 16.253233 60.239024 16.341595 -21.762562 -0.000001 0.000002 0.000007 -19.970795 -0.383514 11.455654 19.883225 -20.785239 -59.037778 16.908890 -15.192712 -27.398025 0.000001 0.000000 0.000000 -7.041049 0.875474 9.259601 2.277001 -1.600125 6.458512 -15.163619 -14.508411 -4.687404 -0.000001 0.000002 0.000001 
-11.985949 100.137070 -4.567153 1.905292 9.990288 -8.587669 9.993327 -1.775331 -0.371302 -1.301193 -3.457178 6.017845 -3.019150 -2.298801 1.450531 1.570678 -6.303011 5.119377 0.000000 0.000001 0.000000 0.681742 -2.955275 -1.607078 4.241242 -3.230023 -19.150198 81.712743 -3.070594 9.053194 0.000001 0.000001 0.000003 0.335232 -0.637478 10.338984 4.310163 -1.756808 16.172691 59.708776 16.123083 -20.791057 0.000000 0.000004 0.000002 -20.010141 -0.383193 11.562242 20.285424 -21.066183 -58.924411 17.163890 -15.058417 -27.756048 -0.000002 0.000004 -0.000003 -7.507641 0.905926 9.544091 2.393427 -1.588629 6.306414 -15.216359 -15.167057 -5.255968 -0.000000 0.000000 0.000001 
-12.032951 99.995117 -4.625956 2.263411 10.204291 -8.746518 10.511403 -1.879550 -0.244590 -1.787033 -3.388374 5.994259 -2.677173 -2.083790 1.497445 0.881764 -6.616040 5.347354 0.000000 -0.000000 -0.000000 0.851996 -2.989117 -1.470829 4.684345 -3.633481 -18.954682 80.203018 -2.826521 9.206899 0.000003 -0.000004 0.000004 0.585420 -0.638382 10.526843 4.711994 -1.543210 15.897704 58.113374 15.778381 -20.373309 -0.000003 -0.000001 -0.000001 -20.447887 -0.431460 11.516335 20.769302 -21.463982 -58.617148 17.325256 -15.347630 -28.027357 -0.000003 0.000003 -0.000002 -7.895787 0.956499 9.664970 2.442114 -1.608470 6.493720 -15.510774 -15.725759 -5.692194 0.000002 -0.000002 0.000000 
-12.079194 99.854019 -4.688067 2.369993 9.932143 -9.046757 10.017054 -1.814927 -0.258160 -1.477451 -3.481437 6.157068 -2.695343 -2.043320 1.562069 1.400725 -6.424875 5.406519 0.000001 -0.000000 -0.000000 1.332080 -3.324019 -1.360998 4.998468 -3.159251 -18.926664 79.830418 -2.592006 9.028744 -0.000000 -0.000004 0.000004 0.858804 -0.773153 10.928715 5.105233 -1.247763 15.628188 58.657016 15.585705 -20.392052 0.000003 -0.000003 0.000000 -20.458783 -0.430295 11.997915 20.045588 -21.013615 -59.465833 17.679750 -15.665823 -28.696036 -0.000004 0.000005 -0.000000 -8.444998 1.003258 9.919375 2.799680 -1.481762 6.687927 -15.504748 -15.758563 -5.731947 -0.000000 0.000000 0.000003 
-12.123739 99.710823 -4.734719 3.739572 9.446168 -9.402588 9.123158 -1.687631 -0.295657 -3.937550 -3.384046 6.353110 0.021091 -2.143897 1.336041 0.514887 -6.575934 5.694263 -0.000001 -0.000000 -0.000000 2.240992 -4.785005 -0.656792 5.028507 -1.956471 -18.661875 77.940832 -2.586289 9.676198 -0.000000 -0.000003 0.000007 0.690013 -1.851707 11.101497 5.605095 -1.452014 15.882215 59.684495 15.922322 -21.208593 -0.000006 -0.000001 -0.000001 -21.356142 -0.827430 12.642220 18.661293 -20.079535 -61.018888 18.172760 -17.454186 -29.779574 0.000000 -0.000000 -0.000001 -10.389657 1.387112 9.909590 2.982334 -1.217331 7.223097 -14.311960 -14.584580 -4.919243 0.000001 0.000001 0.000003 
